<?xml version="1.0" encoding="utf-8"?>
<svg width="800px" height="800px" viewBox="0 0 24 24" fill="none" xmlns="http://www.w3.org/2000/svg">
<path d="M21 11.5a8.38 8.38 0 0 1-.9 3.8 8.5 8.5 0 0 1-7.6 4.7 8.38 8.38 0 0 1-3.8-.9L3 21l1.9-5.7A8.38 8.38 0 0 1 4 11.5a8.5 8.5 0 0 1 4.7-7.6 8.38 8.38 0 0 1 3.8-.9h.5a8.48 8.48 0 0 1 8 8v.5z" stroke="#767676" stroke-width="2" stroke-linecap="round" stroke-linejoin="round"/>
<path d="M8 12h8M8 16h5" stroke="#767676" stroke-width="2" stroke-linecap="round"/>
</svg>
