<?xml version="1.0" encoding="utf-8"?>
<svg width="800px" height="800px" viewBox="0 0 24 24" fill="#e8eaed" xmlns="http://www.w3.org/2000/svg">
<path d="M18 3H4C3.44772 3 3 3.44772 3 4V18C3 18.5523 2.55228 19 2 19C1.44772 19 1 18.5523 1 18V4C1 2.34315 2.34315 1 4 1H18C18.5523 1 19 1.44772 19 2C19 2.55228 18.5523 3 18 3Z"/>
<path d="M13 11C13 10.4477 13.4477 10 14 10C14.5523 10 15 10.4477 15 11V13H17C17.5523 13 18 13.4477 18 14C18 14.5523 17.5523 15 17 15H15V17C15 17.5523 14.5523 18 14 18C13.4477 18 13 17.5523 13 17V15H11C10.4477 15 10 14.5523 10 14C10 13.4477 10.4477 13 11 13H13V11Z" />
<path fill-rule="evenodd" clip-rule="evenodd" d="M20 5C21.6569 5 23 6.34315 23 8V20C23 21.6569 21.6569 23 20 23H8C6.34315 23 5 21.6569 5 20V8C5 6.34315 6.34315 5 8 5H20ZM20 7C20.5523 7 21 7.44772 21 8V20C21 20.5523 20.5523 21 20 21H8C7.44772 21 7 20.5523 7 20V8C7 7.44772 7.44772 7 8 7H20Z" />
</svg>